<svg width="75" height="75" viewBox="0 0 75 75" fill="none" xmlns="http://www.w3.org/2000/svg">
<path fill-rule="evenodd" clip-rule="evenodd" d="M15.625 39.0625C14.7621 39.0625 14.0625 38.3629 14.0625 37.5L14.0625 12.5C14.0625 11.6371 14.7621 10.9375 15.625 10.9375C16.4879 10.9375 17.1875 11.6371 17.1875 12.5L17.1875 37.5C17.1875 38.3629 16.4879 39.0625 15.625 39.0625Z" fill="#00b0ff"/>
<path fill-rule="evenodd" clip-rule="evenodd" d="M59.375 64.0625C58.5121 64.0625 57.8125 63.3629 57.8125 62.5L57.8125 53.125C57.8125 52.2621 58.5121 51.5625 59.375 51.5625C60.2379 51.5625 60.9375 52.2621 60.9375 53.125L60.9375 62.5C60.9375 63.3629 60.2379 64.0625 59.375 64.0625Z" fill="#00b0ff"/>
<path fill-rule="evenodd" clip-rule="evenodd" d="M15.625 64.0625C14.7621 64.0625 14.0625 63.3629 14.0625 62.5L14.0625 50C14.0625 49.1371 14.7621 48.4375 15.625 48.4375C16.4879 48.4375 17.1875 49.1371 17.1875 50L17.1875 62.5C17.1875 63.3629 16.4879 64.0625 15.625 64.0625Z" fill="#00b0ff"/>
<path fill-rule="evenodd" clip-rule="evenodd" d="M59.375 42.1875C58.5121 42.1875 57.8125 41.4879 57.8125 40.625L57.8125 12.5C57.8125 11.6371 58.5121 10.9375 59.375 10.9375C60.2379 10.9375 60.9375 11.6371 60.9375 12.5L60.9375 40.625C60.9375 41.4879 60.2379 42.1875 59.375 42.1875Z" fill="#00b0ff"/>
<path fill-rule="evenodd" clip-rule="evenodd" d="M37.5 23.4375C36.6371 23.4375 35.9375 22.7379 35.9375 21.875L35.9375 12.5C35.9375 11.6371 36.6371 10.9375 37.5 10.9375C38.3629 10.9375 39.0625 11.6371 39.0625 12.5L39.0625 21.875C39.0625 22.7379 38.3629 23.4375 37.5 23.4375Z" fill="#00b0ff"/>
<path fill-rule="evenodd" clip-rule="evenodd" d="M37.5 64.0625C36.6371 64.0625 35.9375 63.3629 35.9375 62.5L35.9375 34.375C35.9375 33.5121 36.637 32.8125 37.5 32.8125C38.3629 32.8125 39.0625 33.5121 39.0625 34.375L39.0625 62.5C39.0625 63.3629 38.3629 64.0625 37.5 64.0625Z" fill="#00b0ff"/>
<path fill-rule="evenodd" clip-rule="evenodd" d="M15.625 39.0625C13.0362 39.0625 10.9375 41.1612 10.9375 43.75C10.9375 46.3388 13.0362 48.4375 15.625 48.4375C18.2138 48.4375 20.3125 46.3388 20.3125 43.75C20.3125 41.1612 18.2138 39.0625 15.625 39.0625ZM7.8125 43.75C7.8125 39.4353 11.3103 35.9375 15.625 35.9375C19.9397 35.9375 23.4375 39.4353 23.4375 43.75C23.4375 48.0647 19.9397 51.5625 15.625 51.5625C11.3103 51.5625 7.8125 48.0647 7.8125 43.75Z" fill="#00b0ff"/>
<path fill-rule="evenodd" clip-rule="evenodd" d="M37.5 23.4375C34.9112 23.4375 32.8125 25.5362 32.8125 28.125C32.8125 30.7138 34.9112 32.8125 37.5 32.8125C40.0888 32.8125 42.1875 30.7138 42.1875 28.125C42.1875 25.5362 40.0888 23.4375 37.5 23.4375ZM29.6875 28.125C29.6875 23.8103 33.1853 20.3125 37.5 20.3125C41.8147 20.3125 45.3125 23.8103 45.3125 28.125C45.3125 32.4397 41.8147 35.9375 37.5 35.9375C33.1853 35.9375 29.6875 32.4397 29.6875 28.125Z" fill="#00b0ff"/>
<path fill-rule="evenodd" clip-rule="evenodd" d="M59.375 42.1875C56.7862 42.1875 54.6875 44.2862 54.6875 46.875C54.6875 49.4638 56.7862 51.5625 59.375 51.5625C61.9638 51.5625 64.0625 49.4638 64.0625 46.875C64.0625 44.2862 61.9638 42.1875 59.375 42.1875ZM51.5625 46.875C51.5625 42.5603 55.0603 39.0625 59.375 39.0625C63.6897 39.0625 67.1875 42.5603 67.1875 46.875C67.1875 51.1897 63.6897 54.6875 59.375 54.6875C55.0603 54.6875 51.5625 51.1897 51.5625 46.875Z" fill="#00b0ff"/>
</svg>
