<svg width="40" height="40" viewBox="0 0 40 40" fill="none" xmlns="http://www.w3.org/2000/svg">
<path fill-rule="evenodd" clip-rule="evenodd" d="M31.1786 8.82153C31.8294 9.4724 31.8294 10.5277 31.1786 11.1786L11.1786 31.1786C10.5277 31.8294 9.4724 31.8294 8.82153 31.1786C8.17066 30.5277 8.17066 29.4724 8.82153 28.8215L28.8215 8.82153C29.4724 8.17066 30.5277 8.17066 31.1786 8.82153Z" fill="#33363F"/>
<path fill-rule="evenodd" clip-rule="evenodd" d="M8.82145 8.82153C8.17057 9.4724 8.17057 10.5277 8.82145 11.1786L28.8214 31.1786C29.4723 31.8294 30.5276 31.8294 31.1785 31.1786C31.8293 30.5277 31.8293 29.4724 31.1785 28.8215L11.1785 8.82153C10.5276 8.17066 9.47232 8.17066 8.82145 8.82153Z" fill="#33363F"/>
</svg>
