<svg width="25" height="25" viewBox="0 0 25 25" fill="none" xmlns="http://www.w3.org/2000/svg">
<path fill-rule="evenodd" clip-rule="evenodd" d="M19.4866 5.51335C19.8934 5.92015 19.8934 6.57969 19.4866 6.98649L6.98661 19.4865C6.57981 19.8933 5.92027 19.8933 5.51347 19.4865C5.10667 19.0797 5.10667 18.4201 5.51347 18.0133L18.0135 5.51335C18.4203 5.10655 19.0798 5.10655 19.4866 5.51335Z" fill="#A0A0A0"/>
<path fill-rule="evenodd" clip-rule="evenodd" d="M5.51339 5.51335C5.10659 5.92015 5.10659 6.57969 5.51339 6.98649L18.0134 19.4865C18.4202 19.8933 19.0797 19.8933 19.4865 19.4865C19.8933 19.0797 19.8933 18.4201 19.4865 18.0133L6.98653 5.51335C6.57973 5.10655 5.92018 5.10655 5.51339 5.51335Z" fill="#A0A0A0"/>
</svg>
