<svg width="75" height="75" viewBox="0 0 75 75" fill="none" xmlns="http://www.w3.org/2000/svg">
<path fill-rule="evenodd" clip-rule="evenodd" d="M26.3555 61.1097L26.1485 62.9342L26.3555 61.1097ZM26.5625 59.2852V51.5625H40.625V54.6875H29.6875V61.2141C29.6875 63.0394 27.5838 64.0619 26.1485 62.9342M26.5625 59.2852L8.77905 45.3125L26.5625 31.3398V39.0625H46.875V35.9375H29.6875V29.4109C29.6875 27.5856 27.5838 26.5631 26.1485 27.6908L3.72096 45.3125L26.1485 62.9342L26.3555 61.1097" fill="#00b0ff"/>
<path fill-rule="evenodd" clip-rule="evenodd" d="M48.6445 13.8903L48.8515 12.0658L48.6445 13.8903ZM48.4375 15.7148V23.4375H34.375V20.3125H45.3125V13.7859C45.3125 11.9606 47.4162 10.9381 48.8515 12.0658M48.4375 15.7148L66.221 29.6875L48.4375 43.6602V35.9375H28.125V39.0625H45.3125V45.5891C45.3125 47.4144 47.4162 48.4369 48.8515 47.3092L71.279 29.6875L48.8515 12.0658L48.6445 13.8903" fill="#00b0ff"/>
</svg>
