<svg width="75" height="75" viewBox="0 0 75 75" fill="none" xmlns="http://www.w3.org/2000/svg">
<path fill-rule="evenodd" clip-rule="evenodd" d="M66.7299 17.6451C67.34 18.2553 67.34 19.2447 66.7299 19.8549L50.1896 36.3951C48.359 38.2257 45.391 38.2257 43.5604 36.3951L38.6049 31.4396C37.9947 30.8294 37.0053 30.8294 36.3951 31.4396L22.9799 44.8549C22.3697 45.4651 21.3803 45.4651 20.7702 44.8549C20.16 44.2447 20.16 43.2553 20.7702 42.6451L34.1854 29.2299C36.016 27.3993 38.984 27.3993 40.8146 29.2299L45.7701 34.1854C46.3803 34.7956 47.3697 34.7956 47.9799 34.1854L64.5201 17.6451C65.1303 17.035 66.1197 17.035 66.7299 17.6451Z" fill="#00b0ff"/>
<path fill-rule="evenodd" clip-rule="evenodd" d="M9.375 7.8125C10.2379 7.8125 10.9375 8.51206 10.9375 9.375V55.625C10.9375 57.4009 10.9387 58.6389 11.0175 59.6027C11.0947 60.5483 11.2387 61.0916 11.4484 61.5031C11.8978 62.3851 12.6149 63.1022 13.4969 63.5516C13.9084 63.7613 14.4517 63.9053 15.3973 63.9825C16.3611 64.0613 17.5991 64.0625 19.375 64.0625H65.625C66.4879 64.0625 67.1875 64.7621 67.1875 65.625C67.1875 66.4879 66.4879 67.1875 65.625 67.1875H19.3081C17.6147 67.1875 16.2488 67.1875 15.1428 67.0972C14.0039 67.0041 13.0037 66.8075 12.0782 66.336C10.6082 65.587 9.41302 64.3918 8.66401 62.9218C8.19247 61.9963 7.99589 60.996 7.90284 59.8572C7.81247 58.7512 7.81248 57.3853 7.8125 55.6919L7.8125 9.375C7.8125 8.51206 8.51206 7.8125 9.375 7.8125Z" fill="#00b0ff"/>
</svg>
