<svg width="252" height="38" viewBox="0 0 252 38" fill="none" xmlns="http://www.w3.org/2000/svg">
<path d="M32.038 11.6499L26.4511 4.48766C22.4858 -0.591993 15.1314 -1.49112 10.0594 2.46656L4.2574 7.00061C3.77326 7.37716 3.34292 7.8075 2.97405 8.2609C2.28242 9.11392 1.79059 10.0822 1.50625 11.112C1.27571 11.9419 1.17581 12.8026 1.22192 13.6633C1.29877 15.2387 1.84439 16.8141 2.88184 18.1512L6.45527 22.7314L8.24582 25.0291L10.6435 28.1031L12.434 30.4008L14.97 28.9791L17.36 27.6343L15.6156 25.3135L13.1795 26.6814L10.7818 23.6075L8.99124 21.3097L5.14884 16.3837C4.06529 14.9928 3.81938 13.2099 4.34195 11.6499C4.64934 10.7431 5.21033 9.91315 6.01723 9.283L6.02492 9.2753C6.92404 8.57599 8.00761 8.19944 9.12959 8.19944C9.33708 8.19944 9.55223 8.2148 9.75972 8.23785C10.8663 8.37618 11.873 8.868 12.6646 9.6288L14.5013 11.8958L17.9287 16.2838L19.7192 18.5739L22.2552 17.1522L23.0775 16.6911L25.6135 15.2694L25.6212 15.2771L32.038 11.6499ZM27.7114 10.7815L20.4647 14.8545L15.4004 8.3685C14.2476 6.89302 12.6492 5.89399 10.8433 5.50206L11.8269 4.73358C13.4331 3.48096 15.3389 2.87385 17.237 2.87385C19.8038 2.87385 22.3474 3.99585 24.0765 6.13222L24.5684 6.76236L27.7114 10.7815Z" fill="url(#paint0_linear_1_364)"/>
<path d="M30.8545 24.3298C30.7777 22.7544 30.2321 21.1791 29.1946 19.8419L25.6212 15.2618L23.0852 16.6834L26.9276 21.6094C28.649 23.8072 28.2494 26.9964 26.0515 28.7178L20.334 33.1827C20.603 32.5372 20.7875 31.8456 20.872 31.1309C21.1333 29.0252 20.5569 26.9427 19.2505 25.2751L10.5359 14.1167L14.5013 11.8881L12.6646 9.62109L12.557 9.68259L8.74537 11.819L6.20937 13.2407L6.19401 13.2483L7.98456 15.5384L7.99994 15.5307L15.6156 25.2904L17.36 27.6112C17.921 28.5641 18.1516 29.6631 18.0132 30.7774C17.8442 32.1222 17.1679 33.321 16.0997 34.151C15.5233 34.5967 14.8701 34.9041 14.1862 35.0732C14.1785 35.0732 14.1708 35.0732 14.1631 35.0732C11.827 34.8964 9.55996 33.7975 7.97689 31.8456L7.48505 31.2154L4.34197 27.1886L8.23048 25.0061L6.43993 22.7083L2.54373 24.8985L2.46688 24.9369L6.10352e-05 26.3202L1.7983 28.6179H1.79061L1.7983 28.6256L5.5946 33.4901C7.80014 36.3181 11.0585 37.8474 14.386 37.9703C17.0373 38.0702 19.7423 37.271 21.994 35.5112L27.796 30.9772C29.9324 29.3403 30.9775 26.8274 30.8545 24.3298Z" fill="url(#paint1_linear_1_364)"/>
<path d="M66.7502 13.2176H62.9308V11.7344C62.9308 11.3117 62.5774 10.9582 62.1547 10.9582H45.8706C45.4479 10.9582 45.0944 11.3117 45.0944 11.7344V17.1829C45.0944 17.6056 45.4479 17.9591 45.8706 17.9591H62.1547C64.706 17.9591 66.7579 20.0109 66.7579 22.5623V28.0108C66.7579 30.5622 64.706 32.614 62.1547 32.614H45.8706C43.3192 32.614 41.2674 30.5622 41.2674 28.0108V26.5276H45.0867V28.0108C45.0867 28.4335 45.4402 28.787 45.8629 28.787H62.147C62.5697 28.787 62.9232 28.4335 62.9232 28.0108V22.5623C62.9232 22.1396 62.5697 21.7861 62.147 21.7861H45.8629C43.3115 21.7861 41.2597 19.7343 41.2597 17.1829V11.7344C41.2597 9.18302 43.3115 7.13119 45.8629 7.13119H62.147C64.6983 7.13119 66.7502 9.18302 66.7502 11.7344V13.2176ZM70.5695 7.13119H74.3889V32.6217H70.5695V7.13119ZM102.646 7.13119H107.211V32.6217H103.391V12.2339L92.7709 24.8677L82.1505 12.2339V32.6217H78.3312V7.13119H82.8652L92.7786 18.9197L102.646 7.13119ZM132.102 7.13119C134.653 7.13119 136.705 9.18302 136.705 11.7344V17.5364C136.705 20.0878 134.653 22.1396 132.102 22.1396H115.818C115.395 22.1396 115.042 22.4931 115.042 22.9158V28.0108C115.042 28.4335 115.395 28.787 115.818 28.787H136.705V32.6063H111.214V22.9081C111.214 20.3567 113.266 18.3049 115.818 18.3049H132.102C132.524 18.3049 132.878 17.9514 132.878 17.5287V11.7267C132.878 11.304 132.524 10.9505 132.102 10.9505H115.818C115.395 10.9505 115.042 11.304 115.042 11.7267V13.2099H111.222V11.7267C111.222 9.17535 113.274 7.1235 115.825 7.1235H132.102V7.13119ZM166.015 18.9197C166.015 21.4326 163.963 23.5229 161.412 23.5229H158.829L166.015 32.0914V32.6217H161.481L153.834 23.5229H145.128C144.843 23.5229 144.597 23.4844 144.351 23.4537V32.6217H140.532V7.16963H161.419C163.971 7.16963 166.022 9.25988 166.022 11.7728V18.9197H166.015ZM161.412 19.6958C161.834 19.6958 162.188 19.3423 162.188 18.9197V11.7728C162.188 11.3502 161.834 10.9966 161.412 10.9966H145.128C144.705 10.9966 144.351 11.3502 144.351 11.7728V18.9197C144.351 19.3423 144.705 19.6958 145.128 19.6958H161.412ZM193.204 10.9505H173.661V17.9591H189.377V21.7784H173.661V28.787H193.204V32.6063H169.842V7.11583H193.204V10.9505ZM217.841 7.13119C220.392 7.13119 222.444 9.18302 222.444 11.7344V32.6217H218.625V23.6996H200.781V32.6217H196.961V11.7344C196.961 9.18302 199.013 7.13119 201.565 7.13119H217.841ZM218.617 19.8726V11.7344C218.617 11.3117 218.264 10.9582 217.841 10.9582H201.557C201.134 10.9582 200.781 11.3117 200.781 11.7344V19.8726H218.617ZM226.517 7.09277H230.337V28.7946H252V32.614H226.517V7.09277Z" fill="url(#paint2_linear_1_364)"/>
<defs>
<linearGradient id="paint0_linear_1_364" x1="1.21147" y1="15.194" x2="32.0454" y2="15.194" gradientUnits="userSpaceOnUse">
<stop stop-color="#EF2098"/>
<stop offset="0.1674" stop-color="#DC29A4"/>
<stop offset="0.5063" stop-color="#AA40C5"/>
<stop offset="0.75" stop-color="#8253DE"/>
</linearGradient>
<linearGradient id="paint1_linear_1_364" x1="15.4428" y1="-9.49209" x2="15.4428" y2="74.1602" gradientUnits="userSpaceOnUse">
<stop stop-color="#EF2098"/>
<stop offset="0.1674" stop-color="#DC29A4"/>
<stop offset="0.5063" stop-color="#AA40C5"/>
<stop offset="0.75" stop-color="#8253DE"/>
</linearGradient>
<linearGradient id="paint2_linear_1_364" x1="41.2605" y1="19.8553" x2="252.004" y2="19.8553" gradientUnits="userSpaceOnUse">
<stop stop-color="#EF2098"/>
<stop offset="0.1674" stop-color="#DC29A4"/>
<stop offset="0.5063" stop-color="#AA40C5"/>
<stop offset="0.75" stop-color="#8253DE"/>
</linearGradient>
</defs>
</svg>
